<?xml version="1.0" encoding="UTF-8"?>
<svg xmlns="http://www.w3.org/2000/svg" xmlns:xlink="http://www.w3.org/1999/xlink" viewBox="0 0 48 48" version="1.1" width="96px" height="96px">
<g id="surface1">
<path style=" fill:#039BE5;" d="M 36.5 12 C 35.175781 12 33.910156 12.257813 32.742188 12.703125 C 31.320313 10.480469 28.835938 9 26 9 C 23.894531 9 21.980469 9.820313 20.554688 11.152344 C 18.816406 9.222656 16.304688 8 13.5 8 C 8.253906 8 4 12.253906 4 17.5 C 4 18.292969 4.109375 19.058594 4.289063 19.792969 C 2.289063 21.347656 1 23.769531 1 26.5 C 1 31.195313 4.804688 35 9.5 35 C 9.914063 35 10.316406 34.960938 10.714844 34.902344 C 12.027344 37.902344 15.015625 40 18.5 40 C 21.660156 40 24.414063 38.269531 25.878906 35.707031 C 26.554688 35.894531 27.265625 36 28 36 C 30.621094 36 32.9375 34.734375 34.398438 32.789063 C 35.078125 32.925781 35.78125 33 36.5 33 C 42.300781 33 47 28.300781 47 22.5 C 47 16.699219 42.300781 12 36.5 12 Z "/>
<path style=" fill:#FFFFFF;" d="M 15.824219 25 C 15.867188 25 15.898438 24.964844 15.898438 24.917969 C 15.898438 24.964844 15.867188 25 15.824219 25 Z "/>
<path style=" fill:#FFFFFF;" d="M 21.503906 23.933594 C 21.527344 23.933594 21.550781 23.941406 21.558594 23.945313 C 21.550781 23.941406 21.527344 23.933594 21.503906 23.933594 Z "/>
<path style=" fill:#FFFFFF;" d="M 7.136719 23.929688 C 7.160156 23.929688 7.183594 23.9375 7.195313 23.945313 C 7.183594 23.9375 7.160156 23.929688 7.140625 23.929688 C 7.140625 23.929688 7.136719 23.929688 7.136719 23.929688 Z "/>
<path style=" fill:#FFFFFF;" d="M 24.125 21.910156 C 24.109375 21.949219 24.078125 21.953125 24.054688 21.953125 C 24.058594 21.953125 24.058594 21.953125 24.0625 21.953125 C 24.085938 21.953125 24.113281 21.945313 24.125 21.910156 Z "/>
<path style=" fill:#FFFFFF;" d="M 15.824219 19 C 15.867188 19 15.898438 19.035156 15.898438 19.082031 C 15.898438 19.035156 15.867188 19 15.824219 19 Z "/>
<path style=" fill:#FFFFFF;" d="M 21.359375 22.183594 C 21.359375 22.59375 21.570313 22.847656 21.863281 23.019531 C 21.570313 22.847656 21.359375 22.59375 21.359375 22.183594 Z "/>
<path style=" fill:#FFFFFF;" d="M 38.125 24.730469 C 38.152344 24.789063 38.09375 24.816406 38.09375 24.816406 C 38.09375 24.816406 38.152344 24.789063 38.125 24.730469 Z "/>
<path style=" fill:#FFFFFF;" d="M 8.558594 21 C 8.8125 21 9.0625 21.035156 9.289063 21.09375 C 9.0625 21.035156 8.8125 21 8.558594 21 Z "/>
<path style=" fill:#FFFFFF;" d="M 9.765625 21.910156 C 9.746094 21.949219 9.71875 21.953125 9.691406 21.953125 C 9.695313 21.953125 9.695313 21.953125 9.699219 21.953125 C 9.726563 21.953125 9.75 21.945313 9.765625 21.910156 Z "/>
<path style=" fill:#FFFFFF;" d="M 35.195313 24.164063 C 35.261719 24.269531 35.335938 24.367188 35.425781 24.457031 C 35.511719 24.546875 35.609375 24.625 35.71875 24.695313 C 35.609375 24.625 35.511719 24.546875 35.425781 24.457031 C 35.335938 24.367188 35.261719 24.269531 35.195313 24.164063 Z "/>
<path style=" fill:#FFFFFF;" d="M 37.828125 21.796875 C 37.816406 21.796875 37.804688 21.796875 37.804688 21.796875 C 37.804688 21.796875 37.8125 21.800781 37.828125 21.800781 C 37.828125 21.800781 37.828125 21.796875 37.828125 21.796875 Z "/>
<path style=" fill:#FFFFFF;" d="M 37.832031 24.1875 C 37.832031 24.1875 37.847656 24.1875 37.867188 24.183594 C 37.863281 24.183594 37.863281 24.183594 37.863281 24.183594 C 37.847656 24.183594 37.832031 24.1875 37.832031 24.1875 Z "/>
<path style=" fill:#FFFFFF;" d="M 6.886719 24.460938 C 6.855469 24.53125 6.894531 24.546875 6.90625 24.558594 C 6.992188 24.617188 7.078125 24.65625 7.167969 24.703125 C 7.636719 24.933594 8.078125 25 8.542969 25 C 9.488281 25 10.074219 24.539063 10.074219 23.792969 L 10.074219 23.777344 C 10.074219 23.089844 9.410156 22.839844 8.789063 22.660156 L 8.710938 22.636719 C 8.242188 22.496094 7.839844 22.375 7.839844 22.089844 L 7.839844 22.074219 C 7.839844 21.832031 8.074219 21.652344 8.441406 21.652344 C 8.847656 21.652344 9.328125 21.777344 9.640625 21.9375 C 9.640625 21.9375 9.730469 21.992188 9.765625 21.910156 C 9.78125 21.867188 9.941406 21.476563 9.957031 21.433594 C 9.976563 21.390625 9.941406 21.355469 9.910156 21.335938 C 9.554688 21.136719 9.066406 21 8.558594 21 L 8.464844 21 C 7.601563 21 6.996094 21.480469 6.996094 22.171875 L 6.996094 22.183594 C 6.996094 22.910156 7.660156 23.148438 8.285156 23.3125 L 8.386719 23.339844 C 8.839844 23.46875 9.230469 23.578125 9.230469 23.871094 L 9.230469 23.886719 C 9.230469 24.15625 8.976563 24.359375 8.566406 24.359375 C 8.40625 24.359375 7.898438 24.355469 7.351563 24.035156 C 7.285156 24 7.246094 23.976563 7.195313 23.945313 C 7.167969 23.929688 7.101563 23.902344 7.070313 23.984375 Z "/>
<path style=" fill:#FFFFFF;" d="M 21.246094 24.460938 C 21.21875 24.53125 21.257813 24.546875 21.265625 24.558594 C 21.355469 24.617188 21.441406 24.65625 21.527344 24.703125 C 21.996094 24.933594 22.441406 25 22.90625 25 C 23.847656 25 24.433594 24.539063 24.433594 23.792969 L 24.433594 23.777344 C 24.433594 23.089844 23.773438 22.839844 23.152344 22.660156 L 23.070313 22.636719 C 22.605469 22.496094 22.199219 22.375 22.199219 22.089844 L 22.199219 22.074219 C 22.199219 21.832031 22.4375 21.652344 22.804688 21.652344 C 23.210938 21.652344 23.691406 21.777344 24.003906 21.9375 C 24.003906 21.9375 24.09375 21.992188 24.128906 21.910156 C 24.144531 21.867188 24.300781 21.476563 24.320313 21.433594 C 24.335938 21.390625 24.304688 21.355469 24.273438 21.335938 C 23.917969 21.136719 23.425781 21 22.921875 21 L 22.824219 21 C 21.960938 21 21.359375 21.480469 21.359375 22.171875 L 21.359375 22.183594 C 21.359375 22.910156 22.023438 23.148438 22.648438 23.3125 L 22.746094 23.339844 C 23.203125 23.46875 23.59375 23.578125 23.59375 23.871094 L 23.59375 23.886719 C 23.59375 24.15625 23.339844 24.359375 22.929688 24.359375 C 22.769531 24.359375 22.261719 24.355469 21.714844 24.035156 C 21.648438 24 21.609375 23.976563 21.558594 23.945313 C 21.539063 23.9375 21.460938 23.90625 21.433594 23.984375 Z "/>
<path style=" fill:#FFFFFF;" d="M 31.464844 22.21875 C 31.386719 21.976563 31.265625 21.761719 31.105469 21.585938 C 30.945313 21.40625 30.742188 21.261719 30.503906 21.15625 C 30.261719 21.054688 29.976563 21 29.65625 21 C 29.339844 21 29.054688 21.054688 28.8125 21.15625 C 28.570313 21.261719 28.367188 21.40625 28.210938 21.585938 C 28.046875 21.761719 27.929688 21.976563 27.851563 22.21875 C 27.773438 22.460938 27.734375 22.722656 27.734375 23.003906 C 27.734375 23.28125 27.773438 23.546875 27.851563 23.789063 C 27.929688 24.03125 28.046875 24.242188 28.210938 24.421875 C 28.367188 24.601563 28.574219 24.746094 28.8125 24.847656 C 29.054688 24.945313 29.339844 25 29.65625 25 C 29.976563 25 30.261719 24.949219 30.503906 24.847656 C 30.742188 24.746094 30.945313 24.601563 31.105469 24.425781 C 31.265625 24.246094 31.386719 24.03125 31.464844 23.789063 C 31.542969 23.546875 31.582031 23.285156 31.582031 23.003906 C 31.582031 22.722656 31.542969 22.460938 31.464844 22.21875 M 30.675781 23.003906 C 30.675781 23.425781 30.59375 23.761719 30.425781 23.996094 C 30.257813 24.230469 30.007813 24.34375 29.65625 24.34375 C 29.308594 24.34375 29.058594 24.230469 28.894531 23.996094 C 28.726563 23.761719 28.644531 23.425781 28.644531 23.003906 C 28.644531 22.582031 28.730469 22.246094 28.894531 22.015625 C 29.058594 21.78125 29.308594 21.671875 29.65625 21.671875 C 30.007813 21.671875 30.257813 21.78125 30.425781 22.015625 C 30.59375 22.246094 30.675781 22.582031 30.675781 23.003906 "/>
<path style=" fill:#FFFFFF;" d="M 37.933594 24.234375 C 37.90625 24.160156 37.832031 24.1875 37.832031 24.1875 C 37.71875 24.230469 37.597656 24.265625 37.464844 24.285156 C 37.335938 24.304688 37.191406 24.316406 37.035156 24.316406 C 36.652344 24.316406 36.351563 24.210938 36.132813 24.003906 C 35.917969 23.792969 35.796875 23.457031 35.796875 23.003906 C 35.796875 22.589844 35.90625 22.277344 36.097656 22.039063 C 36.289063 21.804688 36.582031 21.683594 36.972656 21.683594 C 37.296875 21.683594 37.546875 21.71875 37.804688 21.792969 C 37.804688 21.792969 37.867188 21.820313 37.894531 21.742188 C 37.964844 21.566406 38.015625 21.441406 38.089844 21.246094 C 38.109375 21.1875 38.058594 21.164063 38.039063 21.160156 C 37.9375 21.121094 37.695313 21.0625 37.515625 21.035156 C 37.34375 21.011719 37.144531 21 36.925781 21 C 36.59375 21 36.300781 21.054688 36.046875 21.15625 C 35.792969 21.261719 35.582031 21.402344 35.410156 21.582031 C 35.242188 21.761719 35.113281 21.976563 35.027344 22.21875 C 34.941406 22.457031 34.898438 22.722656 34.898438 23.003906 C 34.898438 23.609375 35.074219 24.097656 35.425781 24.457031 C 35.773438 24.816406 36.296875 25 36.980469 25 C 37.382813 25 37.796875 24.925781 38.09375 24.816406 C 38.09375 24.816406 38.152344 24.789063 38.128906 24.730469 Z "/>
<path style=" fill:#FFFFFF;" d="M 41.964844 22.082031 C 41.894531 21.847656 41.730469 21.609375 41.621094 21.503906 C 41.449219 21.328125 41.28125 21.210938 41.117188 21.144531 C 40.898438 21.058594 40.636719 21 40.351563 21 C 40.019531 21 39.71875 21.050781 39.472656 21.160156 C 39.226563 21.265625 39.019531 21.410156 38.859375 21.59375 C 38.695313 21.773438 38.574219 21.992188 38.496094 22.234375 C 38.417969 22.480469 38.378906 22.746094 38.378906 23.023438 C 38.378906 23.308594 38.421875 23.574219 38.5 23.816406 C 38.582031 24.054688 38.710938 24.269531 38.886719 24.445313 C 39.0625 24.621094 39.289063 24.757813 39.558594 24.855469 C 39.824219 24.953125 40.152344 25.003906 40.527344 25 C 41.296875 25 41.703125 24.839844 41.867188 24.753906 C 41.898438 24.738281 41.925781 24.710938 41.890625 24.636719 L 41.71875 24.183594 C 41.691406 24.113281 41.617188 24.140625 41.617188 24.140625 C 41.425781 24.203125 41.15625 24.324219 40.523438 24.320313 C 40.109375 24.320313 39.800781 24.210938 39.609375 24.03125 C 39.414063 23.851563 39.316406 23.585938 39.300781 23.210938 L 41.964844 23.210938 C 41.964844 23.210938 42.035156 23.210938 42.042969 23.144531 C 42.046875 23.117188 42.132813 22.636719 41.964844 22.082031 M 39.3125 22.597656 C 39.347656 22.363281 39.417969 22.164063 39.527344 22.015625 C 39.691406 21.78125 39.9375 21.65625 40.289063 21.65625 C 40.640625 21.65625 40.871094 21.78125 41.035156 22.015625 C 41.144531 22.167969 41.195313 22.371094 41.214844 22.597656 Z "/>
<path style=" fill:#FFFFFF;" d="M 20.453125 22.082031 C 20.386719 21.847656 20.21875 21.609375 20.113281 21.503906 C 19.941406 21.328125 19.773438 21.210938 19.605469 21.144531 C 19.386719 21.058594 19.128906 21 18.84375 21 C 18.511719 21 18.207031 21.050781 17.960938 21.160156 C 17.71875 21.265625 17.511719 21.410156 17.347656 21.59375 C 17.1875 21.773438 17.066406 21.992188 16.988281 22.234375 C 16.910156 22.480469 16.871094 22.746094 16.871094 23.023438 C 16.871094 23.308594 16.910156 23.574219 16.992188 23.816406 C 17.070313 24.054688 17.203125 24.269531 17.378906 24.445313 C 17.554688 24.621094 17.777344 24.757813 18.046875 24.855469 C 18.316406 24.953125 18.640625 25.003906 19.015625 25 C 19.785156 25 20.191406 24.839844 20.359375 24.753906 C 20.390625 24.738281 20.414063 24.710938 20.382813 24.636719 L 20.207031 24.183594 C 20.179688 24.113281 20.105469 24.140625 20.105469 24.140625 C 19.914063 24.203125 19.644531 24.324219 19.011719 24.320313 C 18.597656 24.320313 18.292969 24.210938 18.101563 24.03125 C 17.902344 23.851563 17.804688 23.585938 17.789063 23.210938 L 20.457031 23.210938 C 20.457031 23.210938 20.527344 23.210938 20.535156 23.144531 C 20.535156 23.117188 20.625 22.636719 20.453125 22.082031 M 17.800781 22.597656 C 17.839844 22.363281 17.910156 22.164063 18.015625 22.015625 C 18.179688 21.78125 18.429688 21.65625 18.78125 21.65625 C 19.128906 21.65625 19.359375 21.78125 19.527344 22.015625 C 19.636719 22.167969 19.6875 22.371094 19.703125 22.597656 Z "/>
<path style=" fill:#FFFFFF;" d="M 12.929688 22.480469 C 12.820313 22.476563 12.683594 22.472656 12.515625 22.472656 C 12.285156 22.472656 12.0625 22.496094 11.855469 22.550781 C 11.648438 22.601563 11.460938 22.679688 11.300781 22.789063 C 11.140625 22.894531 11.007813 23.03125 10.914063 23.195313 C 10.820313 23.359375 10.769531 23.550781 10.769531 23.765625 C 10.769531 23.984375 10.8125 24.175781 10.894531 24.328125 C 10.972656 24.484375 11.089844 24.613281 11.238281 24.714844 C 11.386719 24.816406 11.570313 24.890625 11.78125 24.933594 C 11.992188 24.976563 12.230469 25 12.492188 25 C 12.765625 25 13.035156 24.980469 13.300781 24.9375 C 13.5625 24.894531 13.882813 24.835938 13.972656 24.816406 C 14.0625 24.796875 14.160156 24.773438 14.160156 24.773438 C 14.226563 24.757813 14.21875 24.691406 14.21875 24.691406 L 14.21875 22.433594 C 14.21875 21.9375 14.074219 21.570313 13.796875 21.339844 C 13.515625 21.113281 13.101563 21 12.570313 21 C 12.371094 21 12.050781 21.023438 11.855469 21.0625 C 11.855469 21.0625 11.273438 21.164063 11.035156 21.339844 C 11.035156 21.339844 10.980469 21.371094 11.011719 21.4375 L 11.199219 21.90625 C 11.222656 21.96875 11.285156 21.949219 11.285156 21.949219 C 11.285156 21.949219 11.308594 21.941406 11.332031 21.925781 C 11.84375 21.667969 12.492188 21.675781 12.492188 21.675781 C 12.78125 21.675781 13.003906 21.730469 13.152344 21.835938 C 13.296875 21.941406 13.371094 22.09375 13.371094 22.425781 L 13.371094 22.53125 C 13.140625 22.5 12.929688 22.480469 12.929688 22.480469 M 11.867188 24.21875 C 11.765625 24.140625 11.75 24.121094 11.714844 24.070313 C 11.664063 23.996094 11.636719 23.886719 11.636719 23.75 C 11.636719 23.53125 11.714844 23.378906 11.875 23.273438 C 11.871094 23.273438 12.105469 23.085938 12.648438 23.09375 C 13.027344 23.097656 13.371094 23.148438 13.371094 23.148438 L 13.371094 24.273438 C 13.371094 24.273438 13.03125 24.339844 12.652344 24.359375 C 12.109375 24.390625 11.867188 24.21875 11.867188 24.21875 "/>
<path style=" fill:#FFFFFF;" d="M 34.761719 21.167969 C 34.78125 21.109375 34.738281 21.085938 34.71875 21.078125 C 34.675781 21.0625 34.449219 21.015625 34.273438 21.003906 C 33.9375 20.984375 33.753906 21.039063 33.585938 21.109375 C 33.417969 21.179688 33.234375 21.296875 33.136719 21.429688 L 33.132813 21.117188 C 33.132813 21.074219 33.101563 21.039063 33.058594 21.039063 L 32.375 21.039063 C 32.328125 21.039063 32.296875 21.074219 32.296875 21.117188 L 32.296875 24.921875 C 32.296875 24.964844 32.335938 25 32.378906 25 L 33.078125 25 C 33.125 25 33.160156 24.964844 33.160156 24.921875 L 33.160156 23.023438 C 33.160156 22.765625 33.1875 22.511719 33.246094 22.351563 C 33.304688 22.195313 33.382813 22.066406 33.480469 21.976563 C 33.578125 21.886719 33.6875 21.824219 33.8125 21.785156 C 33.933594 21.75 34.070313 21.738281 34.167969 21.738281 C 34.308594 21.738281 34.460938 21.773438 34.460938 21.773438 C 34.511719 21.777344 34.539063 21.746094 34.558594 21.703125 C 34.605469 21.589844 34.734375 21.238281 34.761719 21.167969 "/>
<path style=" fill:#FFFFFF;" d="M 28.203125 19.105469 C 28.117188 19.078125 28.039063 19.0625 27.9375 19.042969 C 27.835938 19.023438 27.714844 19.015625 27.578125 19.015625 C 27.09375 19.015625 26.714844 19.152344 26.449219 19.421875 C 26.183594 19.6875 26.003906 20.097656 25.910156 20.632813 L 25.863281 20.996094 L 25.257813 20.996094 C 25.257813 20.996094 25.183594 20.992188 25.167969 21.074219 L 25.070313 21.628906 C 25.0625 21.683594 25.085938 21.714844 25.15625 21.714844 L 25.746094 21.714844 L 25.148438 25.050781 C 25.101563 25.320313 25.046875 25.539063 24.988281 25.710938 C 24.929688 25.875 24.871094 25.996094 24.800781 26.089844 C 24.734375 26.175781 24.667969 26.238281 24.558594 26.277344 C 24.464844 26.308594 24.359375 26.320313 24.242188 26.320313 C 24.179688 26.320313 24.09375 26.3125 24.03125 26.296875 C 23.964844 26.285156 23.933594 26.273438 23.886719 26.253906 C 23.886719 26.253906 23.816406 26.226563 23.789063 26.296875 C 23.765625 26.351563 23.609375 26.785156 23.59375 26.835938 C 23.574219 26.890625 23.597656 26.929688 23.632813 26.941406 C 23.710938 26.972656 23.769531 26.988281 23.875 27.015625 C 24.023438 27.050781 24.148438 27.050781 24.265625 27.050781 C 24.511719 27.050781 24.734375 27.015625 24.921875 26.949219 C 25.109375 26.882813 25.269531 26.765625 25.414063 26.605469 C 25.570313 26.433594 25.667969 26.253906 25.761719 26.011719 C 25.851563 25.765625 25.929688 25.464844 25.996094 25.113281 L 26.59375 21.714844 L 27.472656 21.714844 C 27.472656 21.714844 27.546875 21.71875 27.5625 21.636719 L 27.660156 21.082031 C 27.667969 21.03125 27.644531 20.996094 27.574219 20.996094 L 26.722656 20.996094 C 26.726563 20.976563 26.78125 20.492188 26.878906 20.210938 C 26.921875 20.089844 27 19.992188 27.066406 19.925781 C 27.132813 19.859375 27.207031 19.8125 27.289063 19.785156 C 27.375 19.757813 27.46875 19.746094 27.574219 19.746094 C 27.65625 19.746094 27.734375 19.753906 27.792969 19.765625 C 27.875 19.785156 27.910156 19.792969 27.929688 19.800781 C 28.019531 19.828125 28.027344 19.800781 28.046875 19.757813 L 28.25 19.199219 C 28.273438 19.140625 28.222656 19.113281 28.203125 19.105469 "/>
<path style=" fill:#FFFFFF;" d="M 15.898438 24.917969 C 15.898438 24.964844 15.867188 25 15.824219 25 L 15.117188 25 C 15.070313 25 15.039063 24.964844 15.039063 24.917969 L 15.039063 19.082031 C 15.039063 19.035156 15.070313 19 15.117188 19 L 15.824219 19 C 15.867188 19 15.898438 19.039063 15.898438 19.082031 Z "/>
</g>
</svg>
